<svg version="1.0" xmlns="http://www.w3.org/2000/svg" width="260.000000pt" height="260.000000pt" viewBox="0 0 260.000000 260.000000" preserveAspectRatio="xMidYMid meet">
<g transform="translate(0.000000,260.000000) scale(0.100000,-0.100000)" fill="#010319" stroke="none">
<path d="M1200 2597 c-3 -3 -31 -7 -62 -11 -512 -54 -964 -453 -1094 -965 -32
-124 -39 -190 -38 -336 1 -153 10 -213 51 -355 29 -102 94 -242 156 -339 174
-268 453 -468 765 -547 245 -62 524 -50 756 33 409 145 725 496 827 917 27
116 34 183 33 333 -4 339 -132 640 -379 889 -238 239 -537 368 -880 380 -72 3
-133 3 -135 1z m206 -41 c330 -23 664 -200 877 -467 37 -46 37 -47 15 -53 -69
-17 -430 -362 -646 -616 -68 -80 -136 -155 -152 -166 -17 -13 -54 -25 -86 -29
-53 -6 -74 -10 -134 -20 -14 -3 -53 -8 -87 -11 -59 -6 -63 -5 -63 14 0 22 201
314 316 457 77 98 252 279 323 335 59 47 81 71 75 82 -6 9 -31 -3 -92 -44 -82
-56 -170 -91 -236 -93 -75 -3 -126 16 -238 86 -178 112 -272 137 -397 105
-209 -54 -438 -236 -506 -402 -31 -76 -27 -187 9 -247 46 -80 121 -115 246
-115 176 0 341 106 453 290 32 53 48 108 32 108 -3 0 -17 -19 -31 -42 -119
-189 -355 -341 -505 -325 -142 15 -218 126 -184 269 21 93 54 148 131 225 106
105 237 163 369 163 69 0 156 -33 251 -95 49 -32 108 -66 132 -76 53 -23 137
-25 212 -5 77 20 87 5 30 -42 -101 -83 -323 -315 -433 -452 -33 -41 -65 -79
-71 -85 -6 -5 -24 -29 -40 -52 -39 -58 -75 -93 -96 -93 -21 0 -160 -44 -210
-66 -118 -53 -234 -122 -283 -168 -35 -33 -26 -55 11 -26 70 54 144 99 212
132 75 35 213 88 231 88 36 0 -33 -110 -185 -295 -87 -105 -177 -193 -264
-257 -31 -23 -59 -46 -60 -50 -9 -22 -133 180 -184 302 -69 162 -89 261 -94
465 -9 353 111 650 366 906 195 195 421 312 688 355 46 8 215 21 223 17 3 -1
37 -4 75 -7z m997 -650 c42 -73 43 -69 -23 -147 -91 -109 -223 -229 -357 -326
-87 -62 -252 -153 -279 -153 -35 0 -5 49 122 200 12 14 65 77 118 140 54 63
156 176 229 251 115 120 133 134 142 119 5 -10 27 -48 48 -84z m70 -143 c67
-222 78 -279 81 -438 4 -204 -39 -397 -130 -579 -175 -349 -490 -591 -874
-673 -90 -19 -337 -25 -435 -11 -248 36 -488 156 -677 336 l-76 73 83 44 c133
69 216 134 354 274 87 90 214 248 256 319 22 36 49 49 120 56 90 9 149 17 185
25 55 11 84 8 88 -10 2 -9 -21 -54 -51 -100 -151 -232 -199 -395 -155 -526 23
-68 46 -95 105 -124 54 -26 157 -31 233 -11 134 34 313 145 427 266 117 123
172 226 178 333 10 198 -182 227 -390 59 -105 -85 -191 -186 -158 -186 4 0 40
34 81 76 82 83 202 168 262 184 130 35 200 -51 154 -187 -52 -154 -257 -368
-437 -457 -89 -44 -195 -73 -254 -70 -53 3 -114 37 -137 75 -52 88 36 282 262
583 l97 129 65 22 c142 48 332 159 470 274 74 61 250 239 250 252 0 16 18 9
23 -8z"/>
</g>
</svg>
